# xmcd
#
# Track frame offsets: 
#        150
#        12978
#        27855
#
# Disc length: 542 seconds
#
# Revision: 0
# Processed by: cddbd v1.5.1PL0 Copyright (c) Steve Scherf et al.
# Submitted via: ExactAudioCopy v0.95a3
#
DISCID=18021c03
DTITLE=Mark Lanegan Band - Hit the City
DYEAR=2004
DGENRE=Blues
TTITLE0=Hit the City
TTITLE1=Mud Pink Skag
TTITLE2=Mirrored
EXTD=
EXTT0=
EXTT1=
EXTT2=
PLAYORDER=
